<?xml version="1.0" encoding="UTF-8"?> <!-- Generator: Adobe Illustrator 21.0.0, SVG Export Plug-In . SVG Version: 6.00 Build 0) -->
<svg xmlns="http://www.w3.org/2000/svg"
     id="Слой_1" x="0px" y="0px" viewBox="0 0 170.1 128.1" style="enable-background:new 0 0 170.1 128.1;"
     xml:space="preserve"> <style type="text/css"> .st0{fill:#2F7FF0;} </style>
    <path class="st0"
          d="M148.8,0c-11.8,0-21.3,9.5-21.3,21.3C127.5,9.5,118,0,106.2,0S84.9,9.5,84.9,21.3C84.9,9.5,75.4,0,63.6,0 C51.9,0,42.3,9.5,42.3,21.3C42.3,9.5,32.8,0,21,0S-0.3,9.5-0.3,21.3c0,5.6,2.3,10.6,5.7,14.5l79.4,92.3l79.4-92.3 c3.4-3.9,5.7-8.9,5.7-14.5C170.1,9.5,160.5,0,148.8,0z"></path> </svg>