<svg xmlns="http://www.w3.org/2000/svg" viewBox="0 0 1898 902.5">
    <defs>
        <style>.cls-1{fill:#202e4d;}.cls-2{fill:#00c18a;}</style>
    </defs>
    <title>msk vue logo svg</title>
    <g id="Слой_2" data-name="Слой 2">
        <g id="Слой_1-2" data-name="Слой 1">
            <path class="cls-1"
                  d="M843,536.5V438.89a75.72,75.72,0,0,0-1.29-15.47,29.51,29.51,0,0,0-3.38-9.25,10.28,10.28,0,0,0-5.14-4.47,18.25,18.25,0,0,0-6.27-1.11,16.46,16.46,0,0,0-10.12,3.51,17,17,0,0,0-6.27,8.93V536.5H772V377h30.54l4.5,17.54h1a39.29,39.29,0,0,1,14.14-15.15A40,40,0,0,1,844,373.5a42.74,42.74,0,0,1,20.25,5.1q9.64,5.11,13.18,17.87a35.71,35.71,0,0,1,14.78-17.07,41.58,41.58,0,0,1,21.54-5.9,47.61,47.61,0,0,1,15.59,2.39,27.56,27.56,0,0,1,12,8.46q5.15,6.06,7.88,16.42T952,427.41V536.5H913.43V434.43q0-14.35-4.66-20.1t-11.41-5.74a17.9,17.9,0,0,0-10,2.71q-4.17,2.71-5.78,8.77V536.5Z"/>
            <path class="cls-1"
                  d="M1087.42,493.06q0-6.44-7.83-10.3a113.41,113.41,0,0,0-19.35-7.09q-11.52-3.21-25.27-6.6a113.92,113.92,0,0,1-25.27-9.33,63.52,63.52,0,0,1-19.35-15.14q-7.83-9.17-7.83-23.66A40.66,40.66,0,0,1,987.8,400a47.59,47.59,0,0,1,14.39-15.29,67.13,67.13,0,0,1,21.75-9.5,110.74,110.74,0,0,1,27.34-3.22,148.73,148.73,0,0,1,27.51,2.25,133.55,133.55,0,0,1,20.63,5.48,76.31,76.31,0,0,1,15,7.24c4.16,2.69,7.72,5.1,10.71,7.25l-17.59,28.65q-4.8-2.89-11-6t-13.12-5.63a103.39,103.39,0,0,0-14.39-4.19,71.08,71.08,0,0,0-14.87-1.61q-13.42,0-21.75,3.55T1024.1,420q0,5.8,7.83,9.34a125.67,125.67,0,0,0,19.35,6.6q11.52,3.06,25.27,6.6a133.24,133.24,0,0,1,25.27,9.18,60.55,60.55,0,0,1,19.34,14.65q7.85,9,7.84,23.18,0,24.47-17.75,38.47t-52.61,14q-27.51,0-47.5-8.21T979,514.63l19.19-30.26a99,99,0,0,0,11,7.89,100.83,100.83,0,0,0,15.52,7.88,130.26,130.26,0,0,0,18.39,6,80.25,80.25,0,0,0,19.35,2.42,40.11,40.11,0,0,0,17.59-3.55Q1087.42,501.43,1087.42,493.06Z"/>
            <path class="cls-1"
                  d="M1151,312.5h67.87V440.75h9.6l52.51-64h49l-64.67,73.28,41.94,52.07H1337V537.5h-51.86L1230.07,471h-11.2V537.5h-41.62V347.86H1151Z"/>
            <path class="cls-1" d="M866.33,786.68h2.25l36-111.68h45L888.17,835H843.54l-69-160H823Z"/>
            <path class="cls-1"
                  d="M1064.27,675.5h59.44V800.69H1148V836h-50.49l-7.35-23.76h-1.28q-7.37,12.21-22.06,20.23a67,67,0,0,1-32.59,8,72.8,72.8,0,0,1-22.21-3.21,39.87,39.87,0,0,1-17.1-10.59q-7-7.38-10.87-19.91t-3.83-31.46V710.81H962V675.5h59.76v91.17q0,19.58,6.23,28.25t19.66,8.66a34.55,34.55,0,0,0,21.25-7.06,38.06,38.06,0,0,0,13.27-17.33V710.81h-17.9Z"/>
            <path class="cls-1"
                  d="M1321.88,818.43a56.58,56.58,0,0,1-10.72,7.56,105,105,0,0,1-15.36,6.93,118.27,118.27,0,0,1-19.36,5.15A124.24,124.24,0,0,1,1254,840q-20.49,0-36.64-5.8a72,72,0,0,1-44.48-43.62Q1167,775,1167,755q0-21.25,6.72-37.19a74.31,74.31,0,0,1,18.4-26.56,76.72,76.72,0,0,1,27.36-15.94,105.86,105.86,0,0,1,59-2.09,68.42,68.42,0,0,1,23.84,11.11,59.49,59.49,0,0,1,17.76,21.09q6.87,13.2,6.88,33.48a154.39,154.39,0,0,1-3.2,29.94H1208.6q.32,10.32,4.32,17.39a34.18,34.18,0,0,0,10.56,11.59,45.36,45.36,0,0,0,15,6.6,75,75,0,0,0,18.08,2.1q19.2,0,31.52-4.51t20-11Zm-69.12-114.95a52.34,52.34,0,0,0-15.68,2.3,43.76,43.76,0,0,0-13.28,6.73,36.7,36.7,0,0,0-9.76,11,34.07,34.07,0,0,0-4.48,14.76h78.72q0-16.08-8.8-25.42T1252.76,703.48Z"/>
            <path class="cls-1"
                  d="M1413,813.84q0-11.21,7.06-17.78t18.62-6.56q12.19,0,19.26,6.56t7.06,17.78q0,11.22-7.06,17.93t-19.26,6.73q-11.55,0-18.62-6.73T1413,813.84Z"/>
            <path class="cls-1"
                  d="M1565.63,675.5H1683.5V823.31q0,36.86-19.22,58t-57.65,21.16a91.54,91.54,0,0,1-29.79-4.81,68.78,68.78,0,0,1-24.34-14.11l18.58-30.78q3.51,2.9,12.65,7.22a47.7,47.7,0,0,0,20.66,4.33,44,44,0,0,0,14.57-2.41,29.14,29.14,0,0,0,12-8,39,39,0,0,0,8-14.59q2.88-9,2.88-22.45V710.77h-76.23Zm51.87-44.18a23.13,23.13,0,0,1,7.32-17.18q7.34-7.14,20.38-7.14,13.38,0,21.34,7.14t8,17.18a21.2,21.2,0,0,1-8,17q-8,6.66-21.34,6.65-13,0-20.38-6.65A22,22,0,0,1,1617.5,631.32Z"/>
            <path class="cls-1"
                  d="M1856.42,791.06q0-6.43-7.83-10.3a113.41,113.41,0,0,0-19.35-7.09q-11.52-3.21-25.27-6.6a113.92,113.92,0,0,1-25.27-9.33,63.52,63.52,0,0,1-19.35-15.14q-7.83-9.17-7.83-23.66A40.66,40.66,0,0,1,1756.8,698a47.59,47.59,0,0,1,14.39-15.29,67.13,67.13,0,0,1,21.75-9.5,110.74,110.74,0,0,1,27.34-3.22,148.73,148.73,0,0,1,27.51,2.25,133.55,133.55,0,0,1,20.63,5.48,76.31,76.31,0,0,1,15,7.24c4.16,2.69,7.72,5.1,10.71,7.25l-17.59,28.65q-4.8-2.89-11-6t-13.12-5.63a102,102,0,0,0-14.39-4.19,71.08,71.08,0,0,0-14.87-1.61q-13.42,0-21.75,3.55T1793.1,718q0,5.81,7.83,9.34a126.75,126.75,0,0,0,19.35,6.6q11.52,3.06,25.27,6.6a133.24,133.24,0,0,1,25.27,9.18,60.4,60.4,0,0,1,19.34,14.65q7.85,9,7.84,23.18,0,24.47-17.75,38.47t-52.61,14q-27.51,0-47.5-8.21T1748,812.63l19.19-30.26a99,99,0,0,0,11,7.89,100.83,100.83,0,0,0,15.52,7.88,130.26,130.26,0,0,0,18.39,6,80.25,80.25,0,0,0,19.35,2.42,40.11,40.11,0,0,0,17.59-3.55Q1856.42,799.43,1856.42,791.06Z"/>
            <path class="cls-1"
                  d="M0,190.71l226.12,18Q277,104.35,327.92,0L380,224.92l224,30.65L79.58,558Q126.79,452.1,174,346.21Z"/>
            <path class="cls-2"
                  d="M144,590.62,599.8,854.5q.11-263.5.2-527L459.76,408.45q-.18,101.16-.38,202.33L284.25,509.72Z"/>
        </g>
    </g>
</svg>