<svg width="330" height="404" viewBox="0 0 330 404" fill="none" xmlns="http://www.w3.org/2000/svg">
    <g clip-path="url(#clip0)">
        <path d="M288.437 138.193C288.614 136.325 289.23 134.526 290.234 132.942C291.238 131.357 292.603 130.032 294.217 129.075C299.964 125.149 310.452 124.63 314.674 131.8C316.054 134.191 316.706 136.931 316.55 139.686C316.394 142.441 315.437 145.091 313.797 147.31C307.952 154.286 296.782 148.219 296.133 147.862C294.412 146.888 288.567 143.644 288.437 138.193Z"
              fill="#FFEE00"/>
        <path d="M320.323 300.429C317.823 300.169 309.121 299.228 307.79 293.16C307.519 290.383 308.255 287.601 309.864 285.32C311.473 283.04 313.848 281.412 316.557 280.733C318.603 280.299 320.732 280.477 322.678 281.244C324.625 282.012 326.301 283.335 327.499 285.049C330.519 289.267 331.006 296.048 327.922 299.033C326.844 299.826 325.6 300.363 324.283 300.605C322.967 300.847 321.613 300.786 320.323 300.429Z"
              fill="#00BE8E"/>
        <path d="M20.7162 309.416C17.7289 316.263 19.2225 323.563 20.4564 331.448C23.7035 351.5 21.2032 350.916 24.3529 360.294C26.7715 366.02 29.4809 371.619 32.4706 377.069C35.7177 383.299 37.1139 385.667 39.9064 386.803C41.6763 387.352 43.5421 387.524 45.3825 387.306C47.223 387.088 48.9969 386.485 50.5893 385.538C53.6415 384.24 58.2199 381.709 67.3442 371.163C72.3306 365.66 76.7676 359.683 80.5922 353.317C85.4628 345.076 88.2228 340.339 88.3202 333.33C88.5459 331.008 88.3061 328.664 87.6148 326.435C86.9234 324.207 85.7945 322.139 84.2939 320.351C82.9339 318.827 81.1638 317.726 79.1947 317.179C77.2256 316.633 75.1408 316.664 73.1889 317.269C71.2082 318.145 69.5522 320.059 65.8505 332.389C61.8241 345.855 62.1813 348.937 58.7719 352.117C55.3625 355.297 48.4787 357.244 44.777 354.486C43.6405 353.642 42.3417 352.084 40.8805 343.81C39.8669 336.754 39.2274 329.649 38.9647 322.525C37.9906 309.546 36.9515 307.534 35.2306 306.009C33.7198 304.761 31.8671 303.997 29.9148 303.817C27.9625 303.638 26.0014 304.051 24.288 305.004C22.6851 306.087 21.4417 307.624 20.7162 309.416Z"
              fill="#00BE8E"/>
        <path d="M107.608 333.395C105.238 342.026 108.062 344.816 105.984 354.778C104.588 361.527 103.127 361.04 102.932 365.583C103.062 372.485 105.613 379.123 110.141 384.337C113.138 388.441 117.066 391.777 121.603 394.071C125.457 395.841 129.629 396.817 133.869 396.939C138.109 397.062 142.33 396.329 146.281 394.785C150.789 393.163 154.929 390.659 158.457 387.419C165.438 380.93 168.198 373.305 171.023 364.706C173.127 359.659 174.293 354.272 174.465 348.807C174.465 347.866 174.465 331.967 167.484 329.793C166.141 329.512 164.748 329.576 163.437 329.979C162.125 330.382 160.937 331.111 159.983 332.097C156.119 335.764 158.1 340.274 154.983 348.807C153.503 353.067 151.096 356.945 147.937 360.164C146.865 361.235 138.812 369.152 132.773 366.004C128.552 363.798 127.675 357.438 127.61 356.822C126.603 348.905 132.708 346.471 132.708 337.938C132.801 335.03 132.166 332.146 130.862 329.545C129.558 326.945 127.626 324.71 125.24 323.044C123.47 322.015 121.459 321.474 119.411 321.474C117.363 321.474 115.352 322.015 113.583 323.044C110.346 325.609 108.209 329.311 107.608 333.395Z"
              fill="#00BE8E"/>
        <path d="M196.545 359.71C194.564 368.925 193.298 371.52 193.136 374.441C193.144 375.321 193.22 376.2 193.363 377.069C194.077 382.909 195.116 391.605 199.273 396.537C201.805 399.555 206.676 400.561 216.385 402.507C217.749 402.799 235.867 406.336 244.862 401.274C245.619 400.952 246.3 400.473 246.86 399.869C247.42 399.265 247.845 398.55 248.109 397.77C248.216 396.618 248.061 395.456 247.656 394.372C247.251 393.288 246.607 392.309 245.771 391.508C238.595 383.493 220.314 388.782 218.398 384.013C218.042 383.038 217.908 381.996 218.008 380.963C218.245 379.667 218.803 378.451 219.632 377.426C223.398 372.916 241.257 379.859 245.608 374.96C246.544 374.009 247.13 372.771 247.271 371.445C247.413 370.12 247.101 368.785 246.388 367.659C243.335 362.435 226.418 369.768 219.827 362.63C218.992 361.849 218.378 360.862 218.047 359.768C217.716 358.674 217.681 357.512 217.943 356.4C218.658 354.907 220.671 354.194 225.639 353.869C233.087 353.75 240.536 354.075 247.946 354.843C253.726 355.135 256.096 354.843 257.428 353.285C258.037 352.212 258.357 350.999 258.357 349.765C258.357 348.53 258.037 347.318 257.428 346.244C255.902 343.194 252.687 341.929 242.816 339.755C228.042 336.283 230.704 338.067 219.372 335.472C213.885 334.206 208.17 332.908 203.137 335.764C202.741 335.994 202.371 336.266 202.033 336.575C198.396 339.819 199.922 343.94 196.545 359.71Z"
              fill="#00BE8E"/>
        <path d="M89.5218 59.7677C88.4178 37.0547 85.6253 24.8546 80.9171 13.8225C75.8516 1.97929 72.4747 0.486719 70.6238 1.11014e-05C61.9542 -1.75214 52.5377 14.3417 44.8421 27.4179C38.672 38.1186 33.6232 49.4268 29.7757 61.163C23.9959 78.4573 26.8533 78.1329 21.5281 90.917C16.8523 102.209 12.1116 108.503 14.482 115.836C14.9832 117.669 15.9216 119.352 17.2167 120.742C18.5117 122.132 20.1249 123.188 21.9178 123.818C27.6651 125.149 33.802 118.627 36.8218 113.663C44.1927 101.527 38.0232 90.2681 45.4915 83.876C48.5274 81.6781 52.1662 80.4661 55.9146 80.4042C59.7137 80.0148 66.9222 79.2361 69.877 83.1297C73.5137 87.8995 67.3443 95.2001 65.2337 113.76C64.2921 122.034 63.3829 130.957 67.669 133.974C70.7537 136.181 75.5919 134.623 78.5792 132.449C84.7486 127.939 85.6903 118.887 86.2423 112.592C88.775 84.5574 90.0413 70.5727 89.5218 59.7677ZM71.046 56.523C67.9612 59.93 63.0906 59.7677 58.6097 59.3459C57.3531 59.3044 56.1217 58.9829 55.0054 58.405C53.7123 57.6617 52.5995 56.6424 51.7463 55.4196C50.8931 54.1968 50.3207 52.8009 50.0699 51.3315C49.1607 45.5559 54.5184 40.6888 59.8111 36.0164C62.7984 33.2908 64.5193 31.7658 66.6299 32.1876C70.6563 32.9339 72.3123 40.2021 72.7669 42.1489C73.3189 45.1341 74.9424 52.24 71.046 56.4906V56.523Z"
              fill="#E72F24"/>
        <path d="M176.933 66.0301C182.193 64.213 188.72 61.9417 192.778 56.0039C195.997 50.8024 197.068 44.5552 195.766 38.5798C194.198 32.1785 190.556 26.4748 185.408 22.3561C178.589 16.2236 172.095 13.8225 161.055 9.92888C146.313 4.73733 140.728 5.97032 138.325 6.68416C135.348 7.60638 132.587 9.11818 130.207 11.1294C121.927 18.0082 121.018 29.2025 119.492 53.7975C117.219 90.3979 117.868 86.634 117.446 89.4894C114.621 107.919 109.848 119.308 116.148 127.128C117.125 128.503 118.383 129.656 119.838 130.512C121.293 131.367 122.912 131.906 124.59 132.093C126.4 131.93 128.157 131.39 129.745 130.507C131.334 129.624 132.719 128.418 133.812 126.966C138.655 121.303 141.646 114.294 142.384 106.881C144.007 95.9464 141.475 90.1059 144.689 87.9319C147.904 85.758 152.937 89.2947 153.716 89.8139C159.106 93.4155 162.353 105.421 162.353 105.421C164.399 112.689 164.756 116.421 167.354 123.624C168.056 125.808 169.157 127.843 170.601 129.627C172.444 132.053 175.015 133.827 177.939 134.688C180.052 135.227 182.268 135.211 184.373 134.643C186.478 134.074 188.4 132.972 189.954 131.444C193.201 127.842 193.201 122.878 193.201 118.043C192.964 112.319 191.642 106.693 189.304 101.462C186.577 94.4971 182.506 88.1357 177.322 82.7404C169.724 74.8882 163.133 72.7466 163.847 70.086C164.561 67.912 168.848 68.7556 176.933 66.0301ZM161.996 53.3108C161.282 53.6352 146.703 59.9624 142.059 53.7001C141.065 50.5461 140.508 47.271 140.403 43.966C139.656 37.1845 139.884 36.0489 140.403 35.0106C141.307 33.5943 142.529 32.4082 143.972 31.5465C145.415 30.6847 147.039 30.171 148.716 30.0461C152.133 29.3847 155.67 29.7321 158.893 31.0458C162.116 32.3596 164.887 34.5828 166.867 37.4441C167.895 38.8893 168.603 40.5366 168.944 42.2765C169.286 44.0164 169.253 45.809 168.848 47.5352C167.873 50.6501 165.048 51.9155 161.996 53.3108Z"
              fill="#E72F24"/>
        <path d="M239.569 49.3522C237.208 46.2443 234.105 43.7786 230.542 42.1814C221.84 38.093 215.898 41.6298 212.716 37.3143C211.662 35.6587 211.081 33.7471 211.036 31.7858C210.99 29.8244 211.481 27.8878 212.456 26.1849C212.59 25.977 212.742 25.7815 212.911 25.6009C217.911 19.4684 233.01 20.4418 233.01 20.4418C242.29 20.5136 251.502 22.0241 260.318 24.9195C281.196 31.4089 283.567 29.7866 294.185 35.3999C299.77 38.3526 304.608 41.6947 306.134 47.2756C306.426 48.4113 307.79 53.3757 305.322 55.6794C302.854 57.9832 296.717 56.0363 284.281 52.24C279.469 50.2453 274.196 49.6274 269.052 50.4554C267.55 50.67 266.105 51.1771 264.799 51.948C259.766 55.1927 260.772 63.4992 260.772 75.6344C260.772 101.592 256.454 100.521 259.019 113.273C260.219 118.025 260.297 122.99 259.246 127.777C258.857 129.367 256.908 137.349 252.265 138.322C249.44 138.939 248.563 136.213 243.368 135.078C237.556 133.747 234.991 136.376 232.523 134.851C228.886 132.514 230.477 124.175 231.711 116.875C235.835 92.3123 232.555 99.5805 236.257 81.9292C240.283 62.8178 243.985 55.939 239.569 49.3522Z"
              fill="#E72F24"/>
        <path d="M281.034 396.18C279.739 394.744 278.842 392.994 278.432 391.105C278.022 389.215 278.113 387.251 278.696 385.408C280.807 380.249 288.113 379.502 292.821 381.06C299.088 383.169 304.381 390.599 302.562 395.337C301.393 398.581 296.977 399.879 295.419 400.301C292.149 400.981 288.746 400.559 285.742 399.1C283.962 398.516 282.348 397.515 281.034 396.18Z"
              fill="#E72F24"/>
        <path d="M60.298 60.871C61.5422 61.5311 62.9172 61.9078 64.3244 61.9742C65.9196 62.1652 67.5236 62.2735 69.13 62.2986C70.7313 62.4338 72.3432 62.229 73.8597 61.6978C75.3762 61.1666 76.7632 60.3208 77.9296 59.2162C82.3456 54.6411 80.852 47.1458 80.235 43.9335C78.9362 37.4441 76.6957 33.5829 73.546 32.869C70.3964 32.1552 68.7729 34.0696 65.5907 36.7627C60.0707 41.4675 54.3234 46.4969 55.1351 52.7592C55.3432 54.4083 55.914 55.9909 56.8066 57.3934C57.6993 58.7959 58.8916 59.9835 60.298 60.871ZM66.9545 38.5148C69.9418 35.984 71.4355 34.7834 72.8966 35.2701C74.3578 35.7568 76.4035 37.0872 77.8322 44.5176C78.4167 47.3729 79.7155 54.0571 76.1437 57.756C73.3188 60.6763 68.8703 60.222 64.5517 59.8327C63.4185 59.807 62.3068 59.5181 61.3046 58.989C60.1798 58.2794 59.2265 57.3293 58.5134 56.2071C57.8003 55.0849 57.3452 53.8187 57.1808 52.4996C56.6288 47.308 61.8891 42.8303 66.9545 38.5148Z"
              fill="#232E4B"/>
        <path d="M147.092 58.4049C148.088 59.6383 149.375 60.6045 150.837 61.2164C152.3 61.8282 153.892 62.0663 155.47 61.9092C159.933 61.7206 164.328 60.7543 168.458 59.0539C170.122 58.63 171.676 57.8585 173.02 56.7902C174.363 55.722 175.464 54.3812 176.251 52.8565C176.826 50.9776 176.955 48.9908 176.628 47.0534C176.301 45.116 175.527 43.2813 174.368 41.6946C172.352 38.5878 169.48 36.1294 166.099 34.6154C162.717 33.1014 158.97 32.5964 155.307 33.161C153.446 33.2317 151.629 33.7419 150.003 34.6499C148.378 35.558 146.991 36.838 145.956 38.385C145.274 39.6505 145.047 41.0132 145.599 48.1192C146.151 55.2251 146.281 57.3666 147.092 58.4049ZM147.937 39.4233C149.528 36.3408 153.749 35.7244 155.567 35.4323C158.78 34.9188 162.073 35.3475 165.047 36.6663C168.02 37.9852 170.548 40.1376 172.322 42.8627C173.295 44.1523 173.957 45.6491 174.255 47.2363C174.554 48.8236 174.481 50.4583 174.043 52.0128C173.069 54.5113 170.796 55.582 167.549 56.9448C167.386 56.9448 152.937 62.8178 149.008 57.1071L148.066 57.756L149.008 57.1071C148.31 54.0392 147.929 50.9079 147.872 47.7623C147.287 41.3377 147.547 40.267 147.937 39.5207V39.4233Z"
              fill="#232E4B"/>
        <path d="M25.4244 125.279C32.0809 127.063 38.8997 119.73 41.887 115.123C45.0289 109.937 46.7532 104.018 46.8875 97.9581C47.3746 92.799 47.7318 88.7106 51.2711 85.8877C54.2008 83.9396 57.6562 82.932 61.1747 82.9999C64.7789 82.7404 71.5328 82.2212 74.0006 85.6606C75.5917 87.8995 74.5851 91.0793 72.8641 96.3357C70.728 102.496 69.1628 108.839 68.1883 115.285C66.9869 123.624 65.6231 133.066 70.4288 136.7C71.7515 137.648 73.3478 138.138 74.9747 138.095C77.7526 137.994 80.4443 137.105 82.7352 135.532C89.5865 130.86 90.788 120.996 91.5023 115.123C94.7494 87.1856 96.6002 73.136 96.4379 62.2662C96.0158 37.9308 93.1908 26.0551 89.1969 15.672C84.4237 3.73145 81.1766 1.52504 78.579 0.940992C69.0975 -1.26542 59.3563 14.3092 50.6866 28.0668C44.137 38.5841 38.6961 49.7516 34.4512 61.3901C32.417 66.6578 30.8205 72.084 29.678 77.6137C28.8103 82.1969 27.3476 86.6473 25.327 90.8522C24.158 93.4804 22.9566 95.8166 21.8851 97.9581C18.2808 105.064 15.6832 110.32 17.4366 116.258C17.9394 118.295 18.9288 120.18 20.3199 121.75C21.7111 123.321 23.4626 124.532 25.4244 125.279ZM23.9307 98.964C25.0347 96.79 26.2361 94.4214 27.4376 91.7607C29.5323 87.4237 31.0497 82.8312 31.951 78.1004C33.0683 72.681 34.6322 67.3631 36.6268 62.2013C40.8198 50.6837 46.1838 39.6263 52.6348 29.2025C60.0706 17.4891 70.169 1.33036 77.9296 3.24474C79.0011 3.50432 82.1507 4.25061 86.9889 16.5805C90.9178 26.6392 93.7428 38.3202 94.1649 62.2986C94.3273 73.0387 92.6388 86.9909 89.2618 114.831C88.5475 120.704 87.4435 129.529 81.4689 133.618C78.514 135.629 74.2604 136.862 71.7276 134.851C68.026 132.06 69.3248 122.942 70.3963 115.642C71.3443 109.316 72.877 103.092 74.9747 97.0496C76.8256 91.3064 78.0594 87.5101 75.7865 84.3303C74.4465 82.9162 72.7949 81.8338 70.963 81.1691C69.1311 80.5045 67.1693 80.2759 65.2335 80.5015C63.61 80.5015 61.9864 80.5015 60.8824 80.6962C56.9057 80.6471 53.0127 81.838 49.745 84.1031C45.4588 87.3479 45.0042 92.4745 44.5172 97.731C44.4131 103.451 42.8122 109.044 39.8739 113.955C36.432 119.276 30.5872 124.403 25.9114 123.17C24.3107 122.544 22.8845 121.543 21.7539 120.249C20.6233 118.955 19.8218 117.408 19.4173 115.739C18.1509 110.32 20.4564 105.875 23.9307 98.964Z"
              fill="#232E4B"/>
        <path d="M128.032 136.732C130.014 136.651 131.956 136.146 133.726 135.25C135.496 134.354 137.054 133.09 138.293 131.541C143.467 125.863 146.785 118.743 147.806 111.132C148.456 107.327 148.772 103.473 148.748 99.6129C148.748 95.7517 148.748 93.8373 150.177 93.1235C152.028 91.9554 155.34 93.4479 157.84 95.265C162.808 98.7368 165.6 110.32 165.6 110.32C166.25 113.046 166.704 115.252 167.127 117.329C167.853 121.206 168.829 125.032 170.049 128.783C170.709 131.133 171.811 133.335 173.296 135.272C175.203 137.944 177.926 139.926 181.056 140.918C182.302 141.278 183.591 141.464 184.888 141.47C188.387 141.516 191.762 140.175 194.272 137.738C198.006 133.91 198.104 128.686 198.201 123.656C198.138 117.818 196.993 112.043 194.824 106.621C192.222 99.4531 188.277 92.8459 183.2 87.1532C180.406 84.1758 177.364 81.4404 174.108 78.9765C172.095 77.3866 170.179 75.894 170.374 75.2126C170.568 74.5312 172.095 74.4988 173.945 74.2392C176.903 73.8479 179.824 73.2186 182.68 72.3572C188.168 70.67 194.986 68.5285 199.435 62.4284C203.033 57.0904 204.376 50.5478 203.169 44.2255C201.738 37.5798 198.168 31.5853 193.006 27.1583C186.447 20.4417 179.79 17.8784 168.847 13.5954C154.755 8.1767 148.683 8.79319 145.306 9.73416C142.215 10.6261 139.318 12.0899 136.766 14.0496C127.707 21.0907 126.636 33.1286 124.33 57.1395C122.22 79.5605 121.7 86.926 121.473 89.5867C121.439 90.5455 121.331 91.5002 121.148 92.4421C120.336 96.8873 119.395 101.008 118.55 104.61C115.92 116.129 114.004 124.435 118.875 130.924C119.892 132.495 121.237 133.827 122.818 134.829C124.398 135.832 126.177 136.481 128.032 136.732ZM120.791 105.259C121.635 101.625 122.609 97.4714 123.421 92.9937C123.625 91.9232 123.745 90.8382 123.778 89.7489C123.973 86.9909 124.525 79.6254 126.603 57.3017C128.941 32.4472 130.207 22.0316 138.195 15.8342C140.502 14.0605 143.124 12.7393 145.923 11.9406C147.677 11.4539 153.034 9.96129 167.971 15.7693C178.589 19.8901 185.083 22.421 191.577 28.8131C196.395 32.8966 199.738 38.4484 201.091 44.6149C201.657 47.4357 201.662 50.3404 201.105 53.1631C200.548 55.9857 199.44 58.6711 197.844 61.0656C193.817 66.5816 187.421 68.5609 182.258 70.1508C179.513 71 176.699 71.608 173.848 71.9679C170.958 72.3897 169.01 72.6817 168.458 74.5637C167.906 76.4456 169.854 78.36 172.971 80.7935C176.117 83.1748 179.05 85.8238 181.738 88.7106C186.639 94.1885 190.442 100.555 192.941 107.465C195.03 112.622 196.131 118.125 196.188 123.689C196.188 128.491 196.188 133.034 192.941 136.181C191.494 137.517 189.727 138.457 187.81 138.912C185.893 139.367 183.892 139.32 181.998 138.777C179.361 137.904 177.081 136.195 175.504 133.91C174.152 132.19 173.139 130.23 172.517 128.134C171.317 124.483 170.373 120.754 169.692 116.972C169.237 114.863 168.783 112.624 168.133 109.899C168.133 109.379 165.048 97.3416 159.399 93.2532C157.25 91.5791 154.673 90.5444 151.963 90.2681C150.966 90.2532 149.986 90.5234 149.138 91.0468C146.735 92.5718 146.702 95.4921 146.638 99.548C146.659 103.277 146.355 107.001 145.728 110.677C144.71 117.816 141.551 124.479 136.669 129.789C135.635 131.082 134.347 132.149 132.883 132.925C131.42 133.701 129.813 134.168 128.162 134.299C126.674 134.112 125.243 133.614 123.962 132.837C122.681 132.06 121.578 131.021 120.726 129.789C116.472 124.013 118.193 116.55 120.791 105.259Z"
              fill="#232E4B"/>
        <path d="M226.061 47.5676C229.587 47.7037 233.047 48.5653 236.224 50.0985C239.598 51.6817 242.498 54.1205 244.634 57.1719C247.524 61.8119 246.225 66.4518 243.4 76.6403C242.426 80.1121 241.322 84.0058 240.153 88.7755C238.789 93.6414 237.908 98.63 237.523 103.669C236.981 110.374 235.961 117.031 234.471 123.591L234.276 124.532C232.75 132.157 231.029 140.01 235.218 142.768C235.93 143.175 236.717 143.434 237.532 143.528C238.347 143.623 239.172 143.552 239.959 143.319C242.111 142.901 244.329 142.967 246.453 143.514C248.167 143.948 249.785 144.696 251.226 145.72C252.245 146.567 253.507 147.067 254.83 147.148H255.707C260.415 146.304 262.883 139.815 263.922 136.019C265.145 131.262 265.256 126.288 264.247 121.482V121.028C263.296 116.413 263.407 111.642 264.571 107.076C266.189 99.2924 267.048 91.3707 267.137 83.4217C267.137 81.6696 267.137 79.9823 267.137 78.36C267.137 69.2099 267.429 63.1747 271.228 60.8385C272.45 60.1947 273.783 59.7874 275.157 59.6379C279.865 59.0329 284.649 59.7287 288.989 61.6497L289.736 61.9092C302.432 66.2247 308.829 68.3987 311.784 65.7705C313.765 63.9859 314.252 60.7087 313.18 56.2634C311.719 50.0985 306.491 46.5293 301.069 43.2845C296.201 40.4492 290.921 38.391 285.418 37.1845C281.164 36.0164 275.871 34.5887 267.266 31.6036C258.61 28.419 249.502 26.6337 240.283 26.3147C239.634 26.3147 224.567 24.9843 218.983 31.1817C218.78 31.3929 218.595 31.6209 218.43 31.8631C217.275 33.7299 216.663 35.8816 216.663 38.0768C216.663 40.2719 217.275 42.4236 218.43 44.2904C220.022 47.0484 222.814 47.2755 226.061 47.5676ZM220.119 33.1935L220.476 32.7068C225.314 27.3854 239.731 28.586 239.959 28.6184C249.101 28.9328 258.134 30.7074 266.714 33.8749C275.287 36.86 280.872 38.3526 284.931 39.4558C290.252 40.6558 295.356 42.6696 300.062 45.4261C305.03 48.249 309.803 51.591 311.07 56.9124C311.914 60.3842 311.654 63.0449 310.388 64.1805C308.439 65.9002 301.328 63.4991 290.58 59.8651L289.866 59.6055C285.132 57.578 279.936 56.8716 274.832 57.5613C273.19 57.7627 271.602 58.2806 270.156 59.0863C265.221 62.0715 265.123 68.9827 264.929 78.5546C264.929 80.1446 264.929 81.7994 264.929 83.584C264.833 91.4004 263.996 99.1901 262.428 106.849C261.211 111.603 261.067 116.568 262.006 121.385V121.872C262.961 126.342 262.872 130.972 261.746 135.402C260.188 140.983 257.85 144.455 255.252 144.909C254.246 145.071 253.694 144.909 252.427 143.903C250.763 142.74 248.905 141.883 246.94 141.372C245.625 141.032 244.272 140.857 242.913 140.853C241.825 140.872 240.74 140.969 239.666 141.145C238.075 141.372 237.264 141.47 236.419 140.951C233.627 139.069 235.218 131.216 236.419 125.084V124.143C237.96 117.497 239.045 110.754 239.666 103.961C240.036 99.0447 240.885 94.1762 242.199 89.4244C243.368 84.6872 244.44 80.7935 245.446 77.3541C248.369 66.8412 249.862 61.5523 246.42 56.0687C244.06 52.6818 240.86 49.965 237.134 48.1841C233.686 46.5007 229.927 45.5505 226.094 45.3936C222.847 45.134 221.093 44.8745 219.892 43.1223C219.006 41.6084 218.559 39.8787 218.599 38.1257C218.639 36.3728 219.165 34.6654 220.119 33.1935Z"
              fill="#232E4B"/>
        <path d="M297.107 136.992C295.286 137.972 293.739 139.39 292.605 141.118C291.471 142.846 290.787 144.829 290.613 146.888C290.613 150.944 293.275 154.611 298.568 157.791C301.902 159.734 305.656 160.847 309.511 161.035C311.046 161.089 312.573 160.805 313.987 160.206C315.401 159.606 316.666 158.704 317.693 157.564C319.559 155.221 320.696 152.382 320.961 149.4C321.227 146.418 320.61 143.423 319.187 140.788C318.338 139.272 317.179 137.952 315.786 136.912C314.394 135.872 312.797 135.137 311.102 134.753C306.324 133.629 301.295 134.433 297.107 136.992ZM317.076 141.892C318.273 144.111 318.797 146.631 318.583 149.144C318.37 151.656 317.429 154.052 315.875 156.039C310.355 162.171 300.094 156.039 299.64 155.811C295.094 153.086 292.788 150.101 292.821 146.888C293.052 145.219 293.672 143.628 294.631 142.241C295.589 140.855 296.86 139.713 298.341 138.906C300.894 137.352 303.826 136.533 306.816 136.538C308.031 136.537 309.242 136.689 310.42 136.992C311.81 137.299 313.121 137.894 314.267 138.737C315.414 139.581 316.371 140.656 317.076 141.892Z"
              fill="#232E4B"/>
        <path d="M19.9694 258.053C23.3628 261.332 27.5108 263.728 32.0485 265.029C33.5285 265.372 35.0426 265.546 36.5619 265.548C42.4716 265.548 47.8293 262.855 54.7455 259.383C61.6618 255.911 62.7658 253.737 62.7658 252.309C62.7469 251.46 62.4756 250.636 61.9865 249.941C64.5517 248.221 64.779 247.183 64.8115 246.696C64.8115 242.965 56.6613 240.012 56.2717 239.882C48.5761 237.189 45.0693 240.693 38.6725 237.643C35.7751 236.203 33.2938 234.048 31.464 231.381C27.4701 225.605 27.6 219.051 27.8922 210.452C27.8474 206.038 28.2061 201.628 28.9638 197.279C31.6942 194.621 34.9898 192.613 38.6049 191.405C42.22 190.198 46.0613 189.821 49.8425 190.303C54.4311 191.036 58.8002 192.776 62.6359 195.397C66.5974 197.733 70.0068 199.745 73.611 197.668C75.8035 196.229 77.3516 193.995 77.9296 191.438C79.1926 190.594 80.2485 189.476 81.0188 188.167C81.789 186.858 82.2537 185.392 82.3781 183.878C83.1574 176.772 75.884 171.159 73.4487 169.309C66.0129 163.631 58.09 163.307 50.1347 163.015C42.1794 162.723 35.8476 162.463 28.769 166.259C24.9144 168.321 21.5222 171.147 18.8004 174.566C14.1622 178.362 10.35 183.066 7.59804 188.388C3.04579 196.315 0.462461 205.216 0.0648284 214.346C-0.356566 223.213 1.36997 232.051 5.09779 240.109C8.5688 247.179 13.6649 253.328 19.9694 258.053ZM55.2001 183.294C65.1362 184.819 70.3964 191.893 75.3644 192.087C74.8269 193.575 73.8105 194.841 72.4746 195.689C70.1691 197.052 67.8312 195.689 63.8698 193.45C59.7249 190.728 55.0391 188.934 50.1347 188.194C43.3606 187.393 36.5205 189.001 30.8146 192.736C35.7177 184.949 46.6603 181.964 55.2001 183.294ZM2.33778 214.411C2.81214 205.649 5.34863 197.122 9.74111 189.524C10.0658 189.005 10.3905 188.421 10.7477 187.804C7.99738 193.828 6.31633 200.284 5.77968 206.883C5.05072 215.504 6.40948 224.174 9.74111 232.16C12.9069 239.207 17.6904 245.41 23.7035 250.265C26.8804 253.532 30.8022 255.982 35.1332 257.404C42.5365 259.35 48.706 256.495 57.2458 252.536L59.9733 251.141C60.2572 251.468 60.428 251.878 60.4604 252.309C60.4604 252.309 60.2656 254.029 53.7065 257.339C45.4589 261.459 39.6142 264.412 32.4706 262.822C28.2685 261.613 24.4311 259.384 21.3007 256.333C15.2834 251.75 10.4329 245.814 7.14345 239.006C3.62761 231.3 1.98111 222.873 2.33778 214.411Z"
              fill="#232E4B"/>
        <path d="M101.536 268.111L103.387 268.63C107.582 269.998 111.963 270.71 116.375 270.739C121.187 270.687 125.953 269.809 130.467 268.144C135.755 266.56 140.677 263.946 144.949 260.454C148.576 257.501 151.626 253.904 153.944 249.843V249.616C154.658 248.675 155.373 247.669 156.054 246.566C160.146 239.785 160.665 233.587 161.477 223.496C162.289 213.405 162.711 208.311 160.6 202.178C158.428 196.053 154.526 190.689 149.365 186.734C139.949 179.433 129.688 179.822 122.934 180.244C115.498 180.536 107.933 180.893 101.049 186.117C98.5459 187.123 96.2215 188.525 94.1652 190.27C85.2357 198.252 83.4498 210.258 82.151 219.019C81.2579 226.411 81.2579 233.885 82.151 241.277C82.2681 244.841 82.8913 248.37 84.0018 251.758C86.2887 257.417 90.2547 262.241 95.3666 265.58C97.2305 266.832 99.3293 267.693 101.536 268.111ZM120.402 202.276C127.383 199.745 134.396 204.515 137.871 208.765C139.55 210.689 140.798 212.95 141.532 215.395C142.266 217.841 142.468 220.415 142.124 222.945C141.584 225.793 140.151 228.395 138.033 230.375C138.634 229.142 139.06 227.832 139.3 226.481C139.627 223.776 139.352 221.032 138.493 218.446C137.634 215.86 136.213 213.496 134.331 211.523C130.11 206.591 122.999 202.795 116.278 205.034C117.447 203.839 118.851 202.9 120.402 202.276ZM109.946 221.29C110.13 217.101 111.169 212.993 112.998 209.22C113.944 208.351 115.046 207.668 116.245 207.208C117.481 206.698 118.805 206.433 120.142 206.429C122.536 206.617 124.868 207.289 126.994 208.405C129.121 209.52 130.998 211.056 132.513 212.919C134.158 214.626 135.409 216.673 136.178 218.915C136.946 221.157 137.214 223.541 136.962 225.897C136.328 229.293 134.394 232.308 131.571 234.301L129.591 235.112C127.578 235.891 118.356 239.331 113.063 233.879C109.459 230.18 109.784 224.307 109.946 221.29ZM86.2098 250.947C85.1421 247.809 84.5617 244.526 84.4889 241.212C83.6122 233.992 83.6122 226.693 84.4889 219.473C85.6578 211.686 87.2814 201.238 94.2301 193.84C90.8438 200.163 88.6222 207.043 87.671 214.152C86.5524 221.43 86.3234 228.817 86.9892 236.151C86.8914 239.681 87.3405 243.205 88.3205 246.599C90.3479 252.12 94.0338 256.88 98.8734 260.227C101.149 261.766 103.693 262.867 106.374 263.471C110.408 264.899 114.632 265.72 118.908 265.905C123.618 266.031 128.314 265.317 132.773 263.796C135.832 262.956 138.793 261.793 141.605 260.324C138.031 262.853 134.073 264.792 129.883 266.067C125.609 267.648 121.095 268.482 116.538 268.533C112.244 268.476 107.985 267.765 103.906 266.424L102.121 266.067C100.205 265.695 98.3838 264.945 96.7628 263.861C91.9875 260.757 88.2988 256.243 86.2098 250.947Z"
              fill="#232E4B"/>
        <path d="M190.928 283.751C196.249 283.574 201.446 282.092 206.059 279.435C209.942 277.436 213.465 274.804 216.482 271.648C219.686 268.896 222.379 265.601 224.437 261.914C231.516 248.935 228.789 235.632 227.1 227.163C225.866 221.063 222.522 205.585 210.15 195.884C207.325 193.677 200.409 188.194 194.272 190.27C192.15 189.859 189.952 190.144 188.005 191.082C184.563 192.801 182.453 196.533 180.245 204.872C178.389 211.721 177.547 218.804 177.745 225.897C177.882 230.66 177.512 235.424 176.641 240.109C175.481 246.167 173.423 252.017 170.536 257.468C168.101 262.4 166.347 265.937 168.198 270.934C171.445 279.37 181.414 282.388 185.602 283.264C187.356 283.609 189.141 283.772 190.928 283.751ZM199.955 238.13C201.32 234.295 202.203 230.306 202.585 226.254C203.169 227.65 203.851 229.499 204.63 231.9C206.782 237.026 207.325 242.683 206.189 248.124L207.325 248.416L208.429 248.74C209.731 242.83 209.164 236.662 206.806 231.089C205.864 227.837 204.579 224.693 202.974 221.712C203.137 220.187 203.364 219.246 204.013 219.148C206.156 218.856 208.916 228.461 209.501 230.408C211.595 235.832 211.958 241.771 210.54 247.41C210.292 248.837 209.763 250.2 208.983 251.42C208.202 252.64 207.186 253.692 205.994 254.516C207.131 252.744 207.955 250.791 208.429 248.74L207.325 248.416L206.189 248.124C205.475 250.719 204.663 253.672 202.065 254.84C201.797 254.971 201.513 255.069 201.221 255.132C200.083 254.977 198.995 254.57 198.034 253.941C197.074 253.313 196.266 252.478 195.668 251.498C194.11 248.416 197.259 245.658 199.955 238.13ZM170.374 270.026C168.848 265.97 170.374 263.114 172.582 258.377C175.639 252.757 177.828 246.708 179.076 240.434C179.933 235.638 180.303 230.768 180.18 225.897C179.986 218.999 180.817 212.11 182.648 205.456C184.921 196.792 186.901 194.261 189.142 193.126C189.731 192.853 190.353 192.657 190.993 192.542C188.619 195.765 186.939 199.443 186.057 203.347C181.186 219.797 184.336 224.956 181.381 238.292C177.452 255.976 169.042 259.707 171.932 268.241C174.822 276.775 186.317 279.889 188.168 280.344C190.629 280.953 193.173 281.162 195.701 280.96C192.574 281.61 189.346 281.61 186.219 280.96C182.258 280.117 173.101 277.423 170.374 270.026Z"
              fill="#232E4B"/>
        <path d="M309.251 230.375C310.972 227.13 305.322 221.03 302.14 217.688C298.552 213.652 294.408 210.145 289.834 207.273C285.337 204.08 280.282 201.758 274.93 200.426C267.429 198.544 259.668 196.565 254.116 200.848C247.329 206.267 246.777 217.396 246.29 227.13C246.146 228.869 246.146 230.616 246.29 232.354C246.453 233.879 246.615 235.956 246.713 240.985C247.07 264.185 246.388 275.769 246.355 275.898V276.937C245.873 279.409 246.121 281.968 247.07 284.302C249.05 288.099 252.752 288.683 261.617 290.045L270.059 291.408L274.02 292.122C276.616 292.708 279.255 293.088 281.911 293.258C284.346 293.615 285.645 293.452 286.749 292.479C288.157 290.876 288.999 288.855 289.146 286.727C289.292 284.599 288.735 282.482 287.561 280.701L287.268 280.344C286.997 279.725 286.659 279.138 286.262 278.592C285.141 277.334 283.757 276.34 282.208 275.678C280.659 275.016 278.984 274.704 277.3 274.763C274.524 274.704 271.822 273.861 269.507 272.329C267.489 269.494 266.462 266.073 266.585 262.595C266.585 261.005 266.812 254.581 270.189 252.861C271.961 253.519 273.642 254.403 275.189 255.489C278.709 258.169 282.948 259.74 287.366 259.999C288.894 260.391 290.487 260.457 292.042 260.194C292.947 260.113 293.825 259.843 294.619 259.401C295.414 258.96 296.106 258.357 296.652 257.631C297.043 256.572 297.19 255.439 297.083 254.316C296.977 253.192 296.618 252.108 296.036 251.141C295.287 249.544 294.175 248.144 292.788 247.053C289.895 244.028 286.385 241.66 282.495 240.109C279.248 238.325 276.326 236.864 274.15 235.534C273.517 235.037 273.033 234.375 272.754 233.62C272.604 231.238 273.215 228.871 274.499 226.859C275.783 224.846 277.673 223.294 279.898 222.425C282.271 223.481 284.571 224.695 286.781 226.06C288.73 227.163 290.223 228.136 291.522 228.947C293.821 230.874 296.678 232.011 299.672 232.192H300.062C301.08 232.666 302.186 232.92 303.309 232.938C303.796 232.809 308.05 232.809 309.251 230.375ZM259.506 202.406C253.012 207.143 252.103 218.142 251.323 227.552C250.901 232.776 251.551 231.251 251.323 241.342C251.031 264.866 250.025 276.32 250.025 276.32C249.602 280.701 249.375 282.226 250.284 284.108C250.465 284.502 250.694 284.872 250.966 285.211C250.217 284.76 249.61 284.108 249.213 283.329C248.466 281.901 248.531 280.701 248.758 277.164V276.126C248.758 276.126 249.473 264.347 249.115 241.05C249.115 235.956 248.823 233.814 248.693 232.257C248.549 230.627 248.549 228.987 248.693 227.357C249.148 218.013 249.667 207.435 255.642 202.795C257.864 201.234 260.567 200.51 263.273 200.751C261.922 201.053 260.642 201.615 259.506 202.406Z"
              fill="#232E4B"/>
        <path d="M326.331 281.674C324.933 279.82 323.024 278.415 320.837 277.631C318.651 276.847 316.283 276.718 314.024 277.261C311.037 278.083 308.453 279.969 306.76 282.563C305.068 285.157 304.383 288.28 304.835 291.343C305.972 295.886 310.615 298.514 318.603 299.131V297.963V296.827C311.719 296.275 307.757 294.264 306.881 290.792C306.622 288.318 307.241 285.832 308.63 283.769C310.019 281.705 312.089 280.194 314.479 279.5C315.199 279.305 315.941 279.207 316.687 279.208C318.172 279.238 319.631 279.601 320.957 280.269C322.283 280.938 323.443 281.894 324.35 283.069C327.272 286.898 327.597 292.966 325.259 295.529C324.335 296.203 323.276 296.668 322.155 296.892C321.034 297.116 319.877 297.094 318.765 296.827V297.963V299.131C319.577 299.131 320.421 299.131 321.298 299.131C322.381 299.218 323.471 299.076 324.495 298.712C325.519 298.349 326.455 297.773 327.24 297.022C330.617 293.452 329.61 285.925 326.331 281.674Z"
              fill="#232E4B"/>
        <path d="M67.7989 306.594C65.2012 307.632 63.3179 310.098 59.0642 322.038C57.6031 326.159 56.6289 329.307 55.8172 331.773C54.1612 337.061 53.5117 339.041 51.3362 340.89C47.8294 343.843 41.9197 345.206 38.7051 342.577C38.0557 342.026 36.8218 341.02 35.7503 332.454C35.2229 327.757 34.9735 323.033 35.0034 318.307C35.0034 316.23 35.0034 313.959 35.0034 311.266C34.6462 298.027 33.6721 295.691 31.7564 293.809C30.1433 292.285 28.0988 291.296 25.9019 290.976C23.7051 290.657 21.4632 291.023 19.4824 292.025C17.603 293.173 16.1103 294.857 15.1963 296.859C11.9492 303.349 12.761 310.325 13.5727 317.723L13.7676 319.507C14.4263 325.39 14.7623 331.304 14.7742 337.224C14.5988 341.076 15.0931 344.929 16.2353 348.613C18.395 354.52 20.8774 360.304 23.6711 365.939C26.6585 372.429 28.0872 375.122 31.1394 376.647C32.5119 377.324 34.0248 377.669 35.5554 377.653C38.0498 377.522 40.5012 376.95 42.7964 375.966C46.3682 374.635 51.3037 371.942 60.6878 362.143C65.8855 356.818 70.571 351.017 74.6827 344.816C79.7481 337.126 83.125 332.065 83.5796 324.667C83.9568 322.185 83.8291 319.654 83.2043 317.223C82.5794 314.792 81.4701 312.512 79.9429 310.52C78.5045 308.776 76.5968 307.479 74.445 306.783C72.2931 306.088 69.987 306.022 67.7989 306.594ZM81.4041 324.472C80.982 330.961 78.3194 335.212 72.8643 343.486C68.7627 349.585 64.0873 355.278 58.9019 360.488C49.8425 369.963 45.1992 372.494 41.8547 373.759C40.368 374.542 38.7368 375.011 37.0614 375.14C35.3861 375.268 33.7022 375.052 32.1135 374.505C29.8731 373.402 28.6716 371.261 25.6194 364.771C22.876 359.241 20.437 353.565 18.3135 347.769C17.2224 344.264 16.7392 340.599 16.8848 336.932C16.9071 330.925 16.5709 324.923 15.8782 318.956L15.6833 317.171C14.9365 310.13 14.1897 303.479 17.1121 297.703C17.7715 296.113 18.9053 294.765 20.3591 293.842C21.937 293.05 23.7226 292.768 25.468 293.035C27.2135 293.302 28.8325 294.106 30.1003 295.334C31.3992 296.6 32.3084 298.579 32.6655 311.233C32.6655 313.894 32.6655 316.165 32.6655 318.242C32.6313 323.045 32.8915 327.845 33.4448 332.616C34.5164 341.377 35.8477 343.129 37.2114 344.265C41.4651 347.737 48.6087 346.082 52.7974 342.545C55.4925 340.274 56.0445 337.97 57.9602 332.357C58.7395 329.923 59.7461 326.808 61.2073 322.622C65.461 310.617 67.0845 309.157 68.6106 308.54C70.3756 308.121 72.2227 308.203 73.9438 308.776C75.6649 309.349 77.1916 310.391 78.3518 311.785C79.6845 313.588 80.6414 315.64 81.1657 317.819C81.69 319.998 81.7711 322.261 81.4041 324.472Z"
              fill="#232E4B"/>
        <path d="M162.061 323.758C160.539 323.338 158.933 323.314 157.399 323.688C155.864 324.063 154.451 324.825 153.294 325.9C151.039 328.088 149.723 331.066 149.625 334.206C149.15 337.203 148.322 340.133 147.157 342.934C145.555 347.005 143.058 350.665 139.851 353.642C137.741 355.524 130.532 361.397 125.759 358.574C122.22 356.497 121.668 350.722 121.635 350.073C121.483 346.958 122.412 343.886 124.265 341.377C126.178 338.47 127.298 335.115 127.512 331.643C127.75 328.55 127.213 325.447 125.948 322.615C124.684 319.782 122.733 317.309 120.272 315.419C118.373 314.142 116.165 313.399 113.88 313.268C111.595 313.137 109.316 313.622 107.283 314.673C103.83 317.233 101.466 320.997 100.659 325.218C99.5172 328.657 99.0111 332.274 99.1655 335.893C99.276 339.493 98.8603 343.089 97.9316 346.568C97.4613 348.561 96.7527 350.489 95.821 352.312C94.9401 353.862 94.4289 355.594 94.3274 357.373C94.102 364.548 96.3999 371.574 100.822 377.231C103.74 381.571 107.631 385.171 112.186 387.744C116.605 390.2 121.579 391.485 126.636 391.475C130.337 391.44 134.013 390.86 137.546 389.756C142.305 388.337 146.724 385.963 150.534 382.78C158.035 376.485 161.185 368.633 164.497 360.326C166.944 355.235 168.419 349.734 168.848 344.102C168.848 342.448 169.53 326.549 162.061 323.758ZM166.542 344.135C166.095 349.463 164.676 354.665 162.354 359.482C159.106 367.854 156.087 375.09 149.008 381.027C145.447 383.98 141.328 386.187 136.897 387.517C133.026 388.857 128.92 389.384 124.835 389.066C120.751 388.748 116.777 387.591 113.16 385.667C108.93 383.279 105.307 379.948 102.575 375.933C98.4713 370.72 96.3334 364.23 96.5354 357.6C96.6247 356.109 97.0463 354.657 97.7693 353.35C98.7801 351.371 99.554 349.28 100.075 347.12C101.044 343.459 101.481 339.678 101.374 335.893C101.22 332.518 101.682 329.142 102.737 325.932L101.633 325.575L102.737 325.932C103.445 322.127 105.568 318.73 108.679 316.425C110.325 315.599 112.162 315.227 114 315.347C115.838 315.467 117.61 316.074 119.135 317.106C121.274 318.77 122.962 320.942 124.045 323.424C125.128 325.906 125.572 328.62 125.337 331.318C125.056 334.466 123.935 337.48 122.09 340.047C119.993 342.956 118.951 346.492 119.135 350.073C119.135 351.338 119.947 357.795 124.395 360.391C130.337 363.895 138.13 357.925 141.183 355.199C144.742 352.024 147.539 348.086 149.365 343.681C150.583 340.71 151.444 337.606 151.93 334.433C152.031 331.889 153.072 329.473 154.853 327.652C155.702 326.84 156.742 326.256 157.878 325.955C159.014 325.655 160.207 325.647 161.347 325.932C166.25 327.717 166.77 339.69 166.542 344.135Z"
              fill="#232E4B"/>
        <path d="M237.036 337.451C232.577 336.074 228.032 334.99 223.431 334.206C220.14 333.695 216.886 332.969 213.69 332.032C208.3 330.507 202.195 328.787 196.578 331.578C196.077 331.823 195.608 332.128 195.181 332.486C192.486 334.725 191.934 337.321 191.058 342.545C190.473 345.79 189.694 350.04 188.103 356.043C186.966 360.294 186.025 363.084 185.375 365.161C184.666 366.976 184.186 368.873 183.947 370.806C183.881 371.53 183.881 372.257 183.947 372.98V373.597C184.369 379.535 184.986 388.555 189.077 393.974C191.707 397.446 196.675 398.711 206.514 401.209C212.221 402.628 218.07 403.401 223.95 403.513C228.027 403.675 232.088 402.921 235.835 401.307C236.735 400.942 237.551 400.397 238.232 399.705C238.914 399.013 239.446 398.189 239.796 397.283C240.042 395.951 239.968 394.579 239.578 393.282C239.188 391.984 238.495 390.797 237.556 389.821C233.464 384.759 225.606 384.045 219.307 383.331C215.346 382.974 211.287 382.585 210.8 381.19C210.565 380.379 210.499 379.529 210.605 378.691C210.865 377.623 211.377 376.633 212.099 375.803C213.657 374.149 218.918 374.96 223.561 375.803C229.373 376.679 235.413 377.62 238.173 374.797C239.258 373.693 239.992 372.294 240.283 370.774C240.501 369.216 240.228 367.628 239.504 366.231C237.88 362.987 233.27 363.181 227.944 363.214C222.619 363.246 216.093 363.214 213.073 359.677C211.871 358.217 210.962 355.848 211.644 354.615C212.326 353.382 214.209 353.155 218.43 353.09C223.161 353.106 227.883 353.486 232.555 354.226C234.991 354.518 237.588 354.875 240.543 355.167C246.323 355.751 249.213 355.783 251.064 353.674C251.902 352.493 252.411 351.11 252.536 349.667C252.662 348.224 252.4 346.773 251.778 345.465C250.284 341.799 246.777 340.241 237.036 337.451ZM249.57 352.149C248.563 353.285 246.745 353.447 240.998 352.863C238.075 352.571 235.51 352.247 233.075 351.922C228.294 351.177 223.464 350.797 218.625 350.787C213.95 350.787 211.027 351.338 209.826 353.512C209.379 354.818 209.303 356.222 209.607 357.568C209.911 358.914 210.582 360.149 211.547 361.137C215.248 365.583 222.1 365.55 228.204 365.485C232.555 365.485 236.744 365.485 237.686 367.27C238.194 368.271 238.397 369.399 238.27 370.514C238.005 371.549 237.48 372.498 236.744 373.272C234.828 375.252 229.146 374.376 224.113 373.629C218.43 372.753 213.008 371.91 210.637 374.473C209.593 375.61 208.885 377.014 208.592 378.529C208.396 379.744 208.485 380.988 208.852 382.163C209.826 384.986 214.014 385.408 219.307 385.83C225.184 386.381 232.523 387.03 235.997 391.346C236.705 392.022 237.24 392.858 237.556 393.784C237.873 394.711 237.962 395.699 237.815 396.667C237.556 397.277 237.174 397.828 236.694 398.285C236.214 398.743 235.645 399.098 235.023 399.328C226.126 403.773 208.072 399.328 207.293 399.036C197.974 396.667 193.298 395.466 191.058 392.546C187.356 387.679 186.772 379.081 186.349 373.402V372.753C186.299 372.149 186.299 371.541 186.349 370.936C186.606 369.195 187.053 367.487 187.681 365.842C188.363 363.765 189.304 360.91 190.441 356.595C192.064 350.527 192.876 346.147 193.46 342.934C194.37 337.97 194.759 335.926 196.708 334.206C196.993 333.975 197.297 333.769 197.617 333.59C199.387 332.737 201.334 332.314 203.299 332.357C206.614 332.54 209.889 333.162 213.04 334.206C216.235 335.165 219.489 335.913 222.782 336.445C227.296 337.233 231.754 338.317 236.127 339.69C245.868 342.48 248.498 343.81 249.635 346.406C250.078 347.301 250.289 348.293 250.249 349.291C250.21 350.288 249.92 351.26 249.408 352.117L249.57 352.149Z"
              fill="#232E4B"/>
        <path d="M284.703 381.319C279.995 379.47 271.715 379.535 268.923 385.538C268.149 387.542 267.922 389.715 268.264 391.836C268.607 393.956 269.506 395.948 270.871 397.608C272.183 399.149 273.856 400.342 275.741 401.08C278.143 402.367 280.811 403.077 283.534 403.156C284.473 403.151 285.408 403.053 286.327 402.864C287.95 402.507 292.821 401.469 294.542 397.575C295.311 395.231 295.124 392.678 294.022 390.47C292.187 386.351 288.857 383.081 284.703 381.319ZM292.399 396.699C291.295 399.457 287.333 400.301 285.905 400.593C282.781 401.119 279.572 400.558 276.813 399.003C275.257 398.394 273.866 397.427 272.754 396.18C271.661 394.838 270.934 393.237 270.644 391.531C270.354 389.825 270.51 388.073 271.098 386.446C271.889 385.109 273.046 384.027 274.432 383.325C275.819 382.624 277.377 382.333 278.924 382.488C280.643 382.474 282.35 382.782 283.956 383.396C287.53 384.946 290.4 387.768 292.009 391.313C292.837 392.989 292.976 394.922 292.399 396.699Z"
              fill="#232E4B"/>
    </g>
    <defs>
        <clipPath id="clip0">
            <rect width="330" height="404" fill="white"/>
        </clipPath>
    </defs>
</svg>
