<svg width="160" height="76" viewBox="0 0 160 76" fill="none" xmlns="http://www.w3.org/2000/svg">
    <path d="M71.0671 45.1777V36.9598C71.0765 36.5222 71.0403 36.0849 70.9591 35.6547C70.9085 35.3846 70.812 35.125 70.6738 34.8871C70.5788 34.7133 70.4262 34.5776 70.242 34.5032C70.0732 34.4396 69.8943 34.4071 69.7138 34.4073C69.4035 34.4086 69.1024 34.5125 68.8579 34.7028C68.6015 34.8936 68.4158 35.1636 68.3297 35.4705V45.1777H65.0796V31.7434H67.655L68.0406 33.2212H68.1215C68.396 32.6973 68.8076 32.257 69.3128 31.9469C69.8653 31.6056 70.5058 31.4322 71.1557 31.4479C71.7535 31.4497 72.3416 31.5987 72.8675 31.8816C73.1466 32.0434 73.3885 32.2615 73.5777 32.522C73.767 32.7824 73.8994 33.0795 73.9663 33.3939C74.2142 32.7937 74.6512 32.2899 75.2116 31.9584C75.7592 31.6285 76.3876 31.4558 77.0276 31.4594C77.4741 31.4534 77.9186 31.5222 78.3423 31.6628C78.7402 31.8026 79.0922 32.0482 79.3601 32.3729C79.6812 32.7804 79.9076 33.2536 80.0232 33.7586C80.1944 34.4932 80.2721 35.2463 80.2545 36.0002V45.1777H77.0006V36.5836C77.0006 35.7776 76.8721 35.2133 76.615 34.8909C76.5041 34.7412 76.3595 34.6194 76.1928 34.5354C76.0261 34.4515 75.8419 34.4076 75.655 34.4073C75.3581 34.399 75.0654 34.4792 74.8145 34.6376C74.5629 34.8121 74.3878 35.0757 74.3249 35.3745V45.1777H71.0671Z"
          fill="#232E4B"/>
    <path d="M91.6703 41.5197C91.6576 41.3262 91.5879 41.1408 91.47 40.9865C91.3521 40.8322 91.1911 40.7159 91.0071 40.6522C90.4827 40.4053 89.9368 40.2062 89.3763 40.0573C88.7286 39.8769 88.0192 39.6734 87.2481 39.5007C86.5092 39.3303 85.7935 39.0726 85.1161 38.733C84.494 38.4185 83.9399 37.9855 83.4852 37.4587C83.0292 36.8967 82.7947 36.1884 82.8259 35.4666C82.8109 34.8431 82.9669 34.2274 83.277 33.6856C83.5809 33.1714 83.9957 32.7309 84.4915 32.3959C85.0501 32.0248 85.67 31.7546 86.3228 31.5975C87.0794 31.4108 87.8566 31.3193 88.6361 31.325C89.4115 31.3172 90.1859 31.3815 90.9493 31.5169C91.5403 31.6239 92.1218 31.778 92.6881 31.9775C93.1323 32.1337 93.5577 32.3383 93.9565 32.5878C94.3035 32.813 94.6043 33.0164 94.8587 33.1981L93.3744 35.6086C93.1045 35.4474 92.7961 35.2823 92.4452 35.1096C92.0944 34.9369 91.7243 34.7795 91.3387 34.6336C90.9444 34.4867 90.5398 34.3687 90.1281 34.2805C89.7149 34.1926 89.2937 34.1476 88.8712 34.1462C88.2469 34.1239 87.6243 34.2257 87.0399 34.4456C86.8402 34.5056 86.6647 34.6271 86.5386 34.7926C86.4125 34.9581 86.3424 35.1591 86.3382 35.3668C86.3382 35.693 86.558 35.954 86.9975 36.1345C87.525 36.3629 88.0704 36.5477 88.6283 36.6872C89.2761 36.8599 89.9855 37.048 90.7604 37.2437C91.4942 37.4267 92.2073 37.6839 92.8886 38.0114C93.511 38.307 94.066 38.7263 94.5194 39.2435C94.9769 39.79 95.2133 40.4866 95.1826 41.1973C95.2086 41.8166 95.0866 42.4332 94.8265 42.9964C94.5665 43.5596 94.1758 44.0533 93.6867 44.4369C92.6868 45.2224 91.2076 45.6152 89.2491 45.6152C87.8826 45.6473 86.523 45.4126 85.2471 44.9243C84.2617 44.5443 83.3489 43.9991 82.5483 43.3122L84.1676 40.7635C84.4618 41.0057 84.7723 41.2275 85.0968 41.4276C85.5127 41.6855 85.9499 41.9077 86.4038 42.0916C86.9046 42.2959 87.4201 42.4627 87.9459 42.5906C88.4789 42.7257 89.0268 42.7941 89.5768 42.794C90.0876 42.8082 90.5951 42.7072 91.0611 42.4985C91.2485 42.4136 91.4064 42.2753 91.5148 42.1011C91.6232 41.9268 91.6773 41.7245 91.6703 41.5197Z"
          fill="#232E4B"/>
    <path d="M97.0295 26.3159H102.751V37.1171H103.561L107.987 31.7434H112.116L106.664 37.9001L110.2 42.2874H112.71V45.2621H108.338L103.711 39.662H102.766V45.2621H99.258V29.2945H97.045L97.0295 26.3159Z"
          fill="#232E4B"/>
    <path d="M73.0332 66.2467H73.2221L76.2525 56.8427H80.0424L74.8722 70.3154H71.1093L65.2915 56.8427H69.3975L73.0332 66.2467Z"
          fill="#232E4B"/>
    <path d="M89.7158 56.8848H94.7279V67.4249H96.7712V70.3997H92.5303L91.9095 68.3999H91.8016C91.3469 69.1236 90.705 69.7122 89.9433 70.1041C89.0996 70.5583 88.1535 70.7909 87.1944 70.7797C86.5606 70.7861 85.9298 70.6941 85.3245 70.5072C84.775 70.3384 84.2785 70.0318 83.8825 69.6167C83.4497 69.1363 83.1355 68.5619 82.965 67.9393C82.7317 67.0762 82.624 66.1843 82.645 65.2908V59.8787H81.1028V56.8848H86.1418V64.5615C86.1418 65.6593 86.3166 66.4526 86.6662 66.9413C86.8613 67.1889 87.1145 67.3849 87.4036 67.512C87.6927 67.6392 88.0088 67.6937 88.324 67.6706C88.9712 67.6751 89.6017 67.4659 90.1168 67.0757C90.624 66.708 91.0125 66.2011 91.2348 65.6171V59.8787H89.7158V56.8848Z"
          fill="#232E4B"/>
    <path d="M111.422 68.922C111.145 69.166 110.842 69.3796 110.52 69.5591C110.104 69.7863 109.671 69.9801 109.224 70.1387C108.694 70.3304 108.149 70.4755 107.593 70.5725C106.97 70.6856 106.338 70.7409 105.704 70.7375C104.656 70.7524 103.612 70.5875 102.62 70.25C101.758 69.9571 100.973 69.4748 100.324 68.8389C99.6744 68.203 99.1771 67.4299 98.8685 66.5767C98.5228 65.6154 98.3543 64.5999 98.3712 63.5789C98.3484 62.5077 98.5411 61.4428 98.9379 60.4468C99.2812 59.5975 99.8077 58.8336 100.48 58.2091C101.148 57.6056 101.936 57.1491 102.793 56.8695C104.401 56.3384 106.129 56.2771 107.771 56.6929C108.496 56.8706 109.178 57.1889 109.779 57.6295C110.412 58.0952 110.926 58.7027 111.279 59.4028C111.695 60.2839 111.893 61.2511 111.857 62.224C111.851 63.0714 111.76 63.916 111.588 64.7458H101.883C101.884 65.2557 102.01 65.7578 102.25 66.2082C102.465 66.5988 102.77 66.933 103.14 67.1832C103.524 67.4448 103.953 67.6335 104.405 67.7397C104.91 67.8619 105.428 67.9212 105.947 67.9163C106.848 67.9419 107.747 67.8121 108.603 67.5325C109.214 67.3236 109.784 67.012 110.288 66.6113L111.422 68.922ZM105.596 59.2416C105.148 59.239 104.702 59.3037 104.274 59.4335C103.871 59.558 103.493 59.7501 103.156 60.0016C102.821 60.251 102.54 60.5657 102.331 60.9266C102.108 61.3062 101.976 61.7317 101.945 62.1703H108.58C108.623 61.3876 108.357 60.6194 107.84 60.0284C107.359 59.5039 106.615 59.2416 105.608 59.2416H105.596Z"
          fill="#232E4B"/>
    <path d="M119.133 68.5343C119.119 68.2568 119.166 67.9797 119.269 67.7215C119.372 67.4633 119.529 67.2301 119.73 67.0373C120.161 66.6561 120.724 66.4577 121.299 66.4846C121.892 66.4517 122.474 66.65 122.922 67.0373C123.123 67.2303 123.28 67.4636 123.382 67.7218C123.484 67.98 123.53 68.2571 123.516 68.5343C123.529 68.8132 123.483 69.0917 123.381 69.3516C123.279 69.6115 123.122 69.8471 122.922 70.0428C122.703 70.2393 122.446 70.3907 122.168 70.4882C121.889 70.5856 121.594 70.6273 121.299 70.6109C121.013 70.6244 120.727 70.5812 120.457 70.4836C120.188 70.3861 119.941 70.2363 119.73 70.0428C119.529 69.8474 119.373 69.612 119.27 69.3521C119.167 69.0921 119.12 68.8135 119.133 68.5343Z"
          fill="#232E4B"/>
    <path d="M131.983 56.8847H141.918V69.3326C141.918 71.4028 141.379 73.0315 140.299 74.2188C139.22 75.4062 137.599 75.9998 135.437 75.9998C134.584 76.0052 133.735 75.8677 132.928 75.593C132.168 75.3442 131.47 74.9402 130.876 74.4069L132.442 71.816C132.773 72.0565 133.13 72.2599 133.506 72.4225C134.052 72.672 134.648 72.7966 135.249 72.7871C135.667 72.7886 136.083 72.7198 136.478 72.5837C136.867 72.4475 137.215 72.215 137.489 71.9081C137.8 71.552 138.03 71.133 138.163 70.6799C138.344 70.067 138.427 69.4298 138.41 68.7914V59.8556H131.983V56.8847ZM136.355 53.1653C136.351 52.8947 136.404 52.6262 136.51 52.377C136.616 52.1279 136.774 51.9035 136.972 51.7183C137.204 51.5086 137.475 51.3472 137.77 51.2437C138.066 51.1402 138.379 51.0967 138.691 51.1157C139.346 51.0814 139.988 51.2969 140.488 51.7183C140.7 51.8957 140.869 52.1173 140.985 52.3674C141.101 52.6175 141.161 52.8899 141.159 53.1653C141.165 53.4393 141.108 53.711 140.992 53.9593C140.875 54.2076 140.703 54.4259 140.488 54.5971C139.976 54.9925 139.338 55.1914 138.691 55.1575C138.067 55.1965 137.452 54.996 136.972 54.5971C136.77 54.4178 136.611 54.1967 136.504 53.9493C136.397 53.702 136.347 53.4344 136.355 53.1653Z"
          fill="#232E4B"/>
    <path d="M156.496 66.6151C156.484 66.4219 156.415 66.2365 156.297 66.0822C156.18 65.9279 156.02 65.8115 155.836 65.7476C155.31 65.5013 154.763 65.3023 154.202 65.1527C153.558 64.9722 152.844 64.7688 152.073 64.5961C151.336 64.424 150.622 64.1663 149.945 63.8284C149.323 63.5129 148.767 63.0802 148.31 62.5541C147.854 61.9921 147.62 61.2838 147.651 60.562C147.639 59.9453 147.793 59.3367 148.098 58.8001C148.4 58.2853 148.813 57.8445 149.309 57.5104C149.863 57.1323 150.481 56.8555 151.133 56.6929C151.889 56.5057 152.666 56.4142 153.446 56.4203C154.221 56.4123 154.996 56.4766 155.759 56.6123C156.35 56.7188 156.932 56.8728 157.498 57.0729C157.942 57.229 158.368 57.4337 158.766 57.6832C159.119 57.9109 159.419 58.1143 159.669 58.2935L158.184 60.704C157.918 60.5428 157.606 60.3739 157.255 60.205C156.904 60.0361 156.53 59.8787 156.145 59.729C155.75 59.5821 155.346 59.464 154.934 59.3759C154.522 59.2882 154.102 59.2432 153.681 59.2415C153.056 59.2198 152.432 59.3202 151.846 59.5371C151.646 59.5973 151.47 59.7194 151.343 59.8856C151.217 60.0519 151.148 60.2538 151.144 60.4622C151.144 60.7846 151.364 61.0494 151.807 61.2298C152.337 61.4633 152.885 61.6533 153.446 61.7979L155.574 62.3545C156.309 62.5385 157.023 62.7957 157.706 63.1221C158.327 63.4224 158.881 63.8425 159.337 64.3581C159.791 64.9049 160.026 65.5993 159.996 66.308C160.023 66.928 159.902 67.5455 159.642 68.1095C159.381 68.6735 158.99 69.1677 158.5 69.5514C157.501 70.3345 156.023 70.7273 154.067 70.7298C152.699 70.7619 151.338 70.5271 150.061 70.0389C149.075 69.6582 148.162 69.1116 147.362 68.4229L148.981 65.8743C149.274 66.118 149.585 66.3399 149.91 66.5383C150.325 66.799 150.763 67.0225 151.217 67.2062C151.719 67.4088 152.234 67.5755 152.76 67.7052C153.293 67.8398 153.841 67.9081 154.391 67.9086C154.902 67.9225 155.409 67.8201 155.875 67.6092C156.068 67.5264 156.231 67.3868 156.342 67.209C156.453 67.0313 156.506 66.8241 156.496 66.6151Z"
          fill="#232E4B"/>
    <path d="M0 16.0598L19.0612 17.5759L27.6434 0C29.1085 6.31285 30.5722 12.6257 32.0347 18.9385L50.9263 21.5218L6.70844 46.9894L14.6506 29.1717L0 16.0598Z"
          fill="#232E4B"/>
    <path d="M12.1406 49.7377L50.5638 71.958C50.5638 57.1649 50.5638 42.3718 50.5638 27.5787L38.7585 34.3957L38.7238 51.4342L23.9614 42.9246L12.1406 49.7377Z"
          fill="#00BE8E"/>
</svg>
