<svg width="128" height="92" viewBox="0 0 128 92" fill="none" xmlns="http://www.w3.org/2000/svg">
    <g clip-path="url(#clip0)">
        <path d="M128 46.0002C125.102 55.4904 120.686 60.6848 117.218 63.6925C113.097 67.231 110.488 67.4999 105.262 72.6448C100.192 77.5987 100.719 79.2547 96.5837 82.5525C92.8422 85.5248 89.2413 86.5793 82.0536 88.6811C73.7266 91.1085 69.5701 92.3257 64 91.979C58.1375 91.5125 52.4514 89.7406 47.353 86.7916C40.756 83.2531 41.4242 81.5193 34.2295 77.3722C25.8391 72.5387 23.9895 74.3291 19.4602 70.2953C14.931 66.2614 15.4725 63.3033 10.5495 56.6156C7.58748 52.56 4.03042 48.9807 0 46.0002C4.49519 42.1146 8.57957 37.7723 12.1881 33.0424C17.3785 26.1848 18.0044 23.1984 22.9767 19.1433C26.0993 16.5885 26.3244 17.3953 35.1648 12.307C43.6747 7.40975 43.8646 6.43313 48.5275 4.2959C53.3678 1.89826 58.6202 0.456848 64 0.0497478C71.6073 -0.315142 79.1629 1.48257 85.8022 5.23713C90.3525 7.87682 89.6422 8.77559 96.5837 13.2482C104.236 18.2021 105.22 17.1547 109.243 20.5516C112.999 23.7221 113.702 25.9159 119.56 34.4577C123.077 39.5319 126.059 43.5021 128 46.0002Z"
              fill="white"/>
        <path d="M72.5662 19.9003C80.9706 20.0702 84.262 15.8665 87.4128 18.1948C90.8237 20.7142 87.5886 26.0855 91.6325 30.9828C94.9873 35.0237 98.778 33.2898 100.965 36.9557C102.491 39.5175 101.134 41.2018 99.2633 51.8738C97.7583 60.8191 98.131 62.7652 95.9016 65.1077C93.6721 67.4501 92.2303 66.5231 87.4128 69.3538C81.1815 73.0197 81.8848 75.5603 78.087 77.0252C72.6787 79.1483 70.2593 74.3643 58.9925 72.7791C50.7991 71.6114 48.6541 73.6425 44.9969 71.0735C42.1837 69.092 42.6198 67.3015 38.6672 59.1348C33.5613 48.7458 31.0083 47.8754 31.4233 43.7778C31.6483 41.7538 32.3024 41.4566 38.6321 32.2637C43.5552 25.1302 43.4919 24.0545 45.8479 22.0305C48.9627 19.3013 52.7898 17.5281 56.8756 16.9209C63.6413 16.0434 64.7736 19.7446 72.5662 19.9003Z"
              fill="#00BE8E"/>
        <path d="M69.8585 32.1009C74.5073 32.1929 76.3218 29.8717 78.066 31.1526C79.9508 32.568 78.1574 35.5191 80.408 38.2295C82.2647 40.4658 84.3605 39.5034 85.5702 41.5274C86.4141 42.9428 85.6616 43.8769 84.6277 49.772C83.7627 54.7258 83.9877 55.7945 82.757 57.0825C81.5262 58.3705 80.7315 57.8609 78.066 59.4461C74.6198 61.4772 75.0066 62.8784 72.9108 63.6923C69.9218 64.8458 68.5855 62.2203 62.3614 61.3357C57.8321 60.6917 56.6436 61.8098 54.6251 60.3944C53.0638 59.2975 53.3099 58.2714 51.1086 53.7917C48.2954 48.0594 46.8888 47.5781 47.1209 45.2994C47.2335 44.1812 47.6062 44.0185 51.1086 38.9301C53.8233 34.9883 53.7882 34.3938 55.0893 33.2686C56.809 31.7533 58.9258 30.7681 61.1869 30.4308C64.9284 29.9637 65.5543 32.0089 69.8585 32.1009Z"
              fill="#232E4B"/>
        <path d="M72.8757 38.4206C72.102 38.4206 71.7996 38.0455 71.5113 38.2578C71.2229 38.4702 71.5113 38.9655 71.1174 39.4397C70.7236 39.9138 70.4634 39.6449 70.2594 39.9846C70.0555 40.3243 70.2594 40.3738 70.4212 41.3575C70.5618 42.1785 70.5267 42.3554 70.7306 42.5677C70.9346 42.78 71.0682 42.7022 71.5113 42.964C72.0809 43.2966 72.0176 43.5302 72.3693 43.6717C72.8616 43.8628 73.0726 43.4311 74.1205 43.2825C74.873 43.1763 75.07 43.3603 75.4075 43.1268C75.7451 42.8932 75.6256 42.78 75.9913 42.0298C76.4555 41.0745 76.6946 40.9966 76.6524 40.6145C76.6524 40.4234 76.575 40.3951 75.9913 39.5529C75.5412 38.8948 75.5482 38.8028 75.3302 38.6117C75.0418 38.3651 74.6913 38.2034 74.3174 38.1446C73.6915 38.0668 73.593 38.4065 72.8757 38.4206Z"
              fill="white"/>
    </g>
    <defs>
        <clipPath id="clip0">
            <rect width="128" height="92" fill="white"/>
        </clipPath>
    </defs>
</svg>
