<svg width="58" height="51" viewBox="0 0 58 51" fill="none" xmlns="http://www.w3.org/2000/svg">
    <path d="M44.2994 14.8685L44.3016 14.8665C44.5847 14.6075 44.822 14.2884 44.8378 13.9255C44.8465 13.7279 44.7867 13.5394 44.664 13.3853C44.5469 13.2383 44.3928 13.1473 44.2444 13.0929C43.9545 12.9865 43.6065 12.9886 43.267 13.0559C42.9177 13.1252 42.5357 13.2715 42.1552 13.5006L42.1552 13.5005L42.1454 13.5067L14.0679 31.3106L2.06184 27.4903L2.05461 27.488L2.04732 27.4859C1.43477 27.3113 1.02179 27.0862 0.778502 26.8612C0.544441 26.6447 0.486138 26.4508 0.502695 26.2838C0.521227 26.0968 0.64502 25.8284 1.00544 25.5074C1.36185 25.1901 1.913 24.856 2.69099 24.5405L50.3185 6.10423L50.3316 6.09912L50.3445 6.09328C51.291 5.6639 52.123 5.81274 52.6323 6.31274C53.1503 6.82136 53.4754 7.83171 53.0827 9.40816L53.0806 9.41681L53.0787 9.42552L44.9662 47.7676L44.9658 47.7692C44.6964 49.0645 44.2013 49.7199 43.6488 49.9714C43.1 50.2213 42.3123 50.1559 41.2525 49.5746L28.9317 40.4356L28.59 40.1822L28.2851 40.4789L22.3498 46.2557L22.3498 46.2556L22.3444 46.261C21.9927 46.6139 21.7227 46.8812 21.4048 47.072C21.2205 47.1826 21.014 47.2704 20.7604 47.3215L21.5437 35.4451L44.2994 14.8685Z"
          stroke="#232E4B"/>
    <path d="M24.4669 42.9199L25.3021 30.2589L48.208 9.54641C49.2221 8.61854 47.9992 8.16957 46.6571 8.97771L18.3826 26.9066L6.15413 23.0155C3.52949 22.2672 3.49967 20.4414 6.75064 19.1244L54.3819 0.686728C56.5591 -0.301007 58.6469 1.22549 57.8118 4.57781L49.6993 42.9199C49.1326 45.6436 47.4922 46.3021 45.2254 45.045L32.8777 35.886L26.9425 41.6628C26.2565 42.3512 25.6898 42.9199 24.4669 42.9199Z"
          fill="#232E4B"/>
</svg>
