<svg width="65" height="43" viewBox="0 0 65 43" fill="none" xmlns="http://www.w3.org/2000/svg">
    <rect x="3" width="62" height="40" rx="8" fill="#E72F24"/>
    <rect x="0.5" y="3.5" width="61" height="39" rx="7.5" stroke="#E72F24"/>
    <path d="M41.3412 19.4206C42.9117 20.2058 42.7804 22.489 41.1302 23.089L34.7129 25.4226C34.5714 25.474 34.4362 25.5413 34.3098 25.623L30.2564 28.2459C28.7328 29.2317 26.7895 27.8422 27.2296 26.0817L27.9607 23.1573C27.9868 23.0526 28.0045 22.9459 28.0135 22.8384L28.4747 17.3031C28.4915 17.1022 28.4778 16.8999 28.434 16.7031L27.8097 13.8938C27.392 12.0138 29.6118 10.6875 31.0693 11.9462L37.3108 17.3366C37.4364 17.4451 37.5751 17.5376 37.7236 17.6118L41.3412 19.4206Z"
          fill="white"/>
</svg>
