<svg version="1" xmlns="http://www.w3.org/2000/svg" width="682.667" height="682.667"
     viewBox="0 0 512.000000 512.000000">
    <path d="M174.9 4.7c-2.1 2.5-1.5 15.5 2.5 55.2 3.3 31.8 5.2 47.5 8.7 69.7.9 6.1.9 7.7-.5 10.5-2.3 4.7-13.3 12.3-29.5 20.4-7.3 3.6-18.8 10.3-25.5 14.9-6.6 4.5-17.7 11.3-24.4 15.1-18.2 10.2-18.8 12.5-7.9 32.2 8.3 14.9 12.2 24.9 14.3 36 3.7 20.5 7.8 29.7 20.3 46.8 10.5 14.4 16.9 26 25.6 46.9 9.8 23.2 13 29.5 31.9 60.9 9 15 23 39.1 31.1 53.7 20.8 37.4 24.4 42 32.5 42 4.8 0 9-5 18.9-22.6 12.9-22.6 19.3-33.3 31.6-51.9 13.9-21 31.2-50.5 43.4-73.5 5.1-9.6 15-26.1 22-36.5 16.6-24.7 22.6-35 30.9-53.1 3.8-8.2 9.7-19.6 13.2-25.4 9.9-16.4 9.2-18.8-9.4-31.6-6.9-4.8-18.7-14.7-29.7-24.9-10.1-9.4-20.4-18.9-22.9-21.2l-4.5-4.2.1-6.8c.2-8.5 2.7-14.7 15.4-37.7 13.5-24.8 19.2-37.9 25.5-59.9 4.3-14.6 4.5-19.8 1-23.3-2.1-2.1-3.2-2.4-5.8-1.9-1.8.4-14.7 6.2-28.7 13-31 15-62.4 29.4-70.5 32.4-10.7 4-11.8 3.3-39-22.9-21.8-20.9-48.3-44.3-56.9-50.1-6.4-4.3-11.4-5.1-13.7-2.2zm19.2 10.1c12 9.6 31.1 26.7 52.3 47.1 12 11.5 21.6 19.9 24.3 21.2 5.7 2.8 9.1 2.2 22.5-3.5 12.1-5.2 58.5-26.9 74.3-34.8 14.3-7.2 18.1-8.4 20.2-6.7 4.8 4.1-5.4 37.6-20.6 66.9-19.3 37.6-21.2 41.5-22.3 47.7-1.9 10.7-1.3 11.7 18.9 30.4 26.8 25 30 27.7 39 33.6 4.6 3.1 9.7 6.9 11.3 8.5 5.1 5 4.9 6.7-1.5 17.5-3.2 5.3-9.8 18-14.7 28.2-10.6 21.9-12.1 24.6-29 49.9-7.1 10.7-17.6 28-23.2 38.5-5.7 10.6-12 22.1-14.1 25.7-11.3 19.5-20.9 35.1-29.5 48-10.3 15.5-21.4 33.8-32.9 54.1-10.4 18.5-13.5 21.2-19.9 17.3-4.4-2.6-8.2-8.5-25.2-38.9-8.9-16-22.9-40-31-53.5-16.7-27.7-24.6-42.9-33.1-63.9-8.1-19.9-12.5-27.4-30.9-53.1-5.7-8-9.6-18-12.4-32.2-3.1-15.5-5.5-21.9-15.1-40.3-4.1-8-7.5-15.4-7.5-16.5 0-4.5 2.3-6.7 13.8-13 6.4-3.5 17.2-10.1 23.8-14.6 6.7-4.6 17.7-11.1 24.5-14.5 6.8-3.4 16.4-8.9 21.3-12.2 7.3-5 9.3-6.9 10.9-10.6l1.9-4.4-2.6-17.1c-3.1-20-4.5-31.9-8.6-74.6-3.1-31.1-3.2-37.6-.8-39.1 1.7-1.1 7.4 2.1 15.9 8.9z"/>
    <path d="M196.3 65.6c-.7 2 1 9.8 4.8 21.5 1.6 4.9 3.3 12.7 3.8 17.2.5 4.6 2.1 11.3 3.5 15 1.4 3.7 3.2 10 4.1 14 .8 3.9 2.2 9.4 3 12.2 2.1 6.8 2.4 14.7.5 16.9-.8 1-4.6 3.9-8.5 6.5-3.8 2.6-12.4 8.3-19 12.7-6.6 4.5-17.4 11-23.9 14.5-13.5 7.3-23 15.3-22.4 19.1.3 2.3.4 2.3 18.3 2.4 11.5.1 20.9.7 26 1.7 4.5.9 15.9 2.1 25.5 2.7 9.6.6 23.8 1.5 31.5 2.1 7.7.6 24.4 1.3 37 1.5 23.2.3 43.6 1.7 45.8 3.1.7.4 12.2 1.1 25.7 1.5 13.5.4 26.2 1 28.3 1.3 5.7 1.1 4.6-.9-3.1-5.9-9.2-5.8-16.2-13.2-20.5-21.4-3.9-7.3-7.4-11.1-15.2-16.2-12.3-8.1-24.5-21.3-24.5-26.5 0-1.2 2.7-7.3 5.9-13.6 6.5-12.6 15.8-37.9 19.7-53.3 1.3-5.5 3.5-11.9 4.9-14.4 5.3-9.4 3-9.7-9.7-1.4-5.6 3.8-19.1 12.4-29.8 19.2-10.7 6.8-23.7 15-28.8 18.3l-9.3 6-4.7-4.5c-2.6-2.5-7.2-6.1-10.2-8-3-2-8-6.2-11-9.3-3-3.2-7.7-7.3-10.5-9-2.7-1.8-11.3-8.7-19-15.4-13.7-11.8-16.9-13.7-18.2-10.5zm18.2 14.3c6.6 5.7 14.3 11.9 17 13.7 2.8 1.7 7.8 6 11 9.4 3.3 3.4 8.5 7.8 11.5 9.8 3 1.9 7.6 5.5 10.2 7.9 5.3 4.8 6.5 5.1 9.9 2.4 2-1.5 19.2-12.5 53.7-34.2 3-1.9 8-5.3 11.3-7.7 3.2-2.3 6.1-4.2 6.3-4.2.3 0-.6 2.4-1.9 5.3-1.3 2.9-3.1 8.4-3.9 12.2-2.3 11.1-13.9 42.1-20.1 54.2-4.9 9.4-5.7 11.5-5.1 14.5.9 5.1 10.4 15.9 19.9 22.9 13.4 9.7 16 12.3 20.2 19.9 4.1 7.5 12.7 17 17.8 19.6 1.6.9 2.7 1.6 2.5 1.7-1 .6-47.5-.9-48.4-1.5-2.2-1.5-25.2-2.9-50.9-3.3-14.3-.2-27-.6-28.3-.9-1.2-.3-11.3-1-22.5-1.6-21.6-1.1-34.9-2.5-40.9-4.1-2.1-.5-11.5-.9-20.9-.9-9.4.1-17.3-.1-17.7-.4-1.3-1.4 9.4-9.6 20.3-15.5 13.5-7.3 47.8-30 51.8-34.2 2.3-2.5 2.7-3.8 2.7-8.8 0-3.3-.9-8.8-2-12.3-1.1-3.4-2-7.1-2-8.1 0-.9-1.6-6.7-3.6-12.8-2-6.1-4.2-15.6-5-21-.7-5.4-2-11.5-2.9-13.5-1.6-3.9-5.5-18.3-5.5-20.4 0-1.5-.5-1.9 15.5 11.9z"/>
    <path d="M254 148.7c-.1.5-.5 3.9-1.1 7.8-.5 3.8-1.3 11.5-1.8 17.1-1 11.9-2.4 15.5-6.6 16.5-16.8 3.8-29.6 5.8-38.2 5.9-5.2.1 6.3 6.6 18.6 10.6 2.9.9 7.4 3.2 10 5.1 8 5.7 8.5 5.8 19.1 2.8 5.2-1.5 13.6-3.1 18.5-3.7 13.3-1.5 13.1-1.4 19.3-7.6 3.2-3.1 9.9-9.2 15-13.5 11.8-10 12-11.1 1.2-8.2-3 .8-7.6 1.5-10.1 1.5s-8.2.9-12.8 2.1c-4.5 1.1-9.2 1.8-10.5 1.5-3.1-.8-11-14.4-13.6-23.6-2.8-9.4-6.9-17.8-7-14.3zM154.5 246c-1.9 2.1-2.3 8-1 14 .6 2.9.6 3-2 2-4-1.5-8.2-1.2-8.9.6-2.9 7.6 3.6 22.5 14.4 32.9 7.7 7.4 10.4 11.8 17.5 28.9 8.5 20.4 12.7 28.7 25 49.1 11.9 19.8 21.3 37.1 35.3 65 13.3 26.6 20.5 35.5 22.8 28.2 1.6-5 27-55.6 30.9-61.7 2.4-3.6 6.6-9.2 9.5-12.5 6.7-7.8 9.2-12.1 15-26 5.5-13.1 30-54.6 48.1-81.5 6.5-9.6 12.1-18.7 12.4-20.2.5-1.9.1-3.2-1.3-4.6-2.3-2.3-6.5-2.7-39.4-4.2-18-.8-22.4-.8-25.5.4-17.3 6.4-18.2 7-23.5 14.7-2.5 3.5-4.3 7.8-5.4 12.4-3.3 14.2-4.4 17.3-9.8 25.4-3 4.6-6.7 11.2-8.3 14.7-1.5 3.5-3.1 6.4-3.4 6.4-.4 0-1.4-2.1-2.4-4.8-1-2.6-6.5-14.3-12.2-26.1-7.2-15.1-10.9-23.9-12.3-29.9-2.5-10.3-5.4-14.5-12.4-17.8-4.8-2.2-6.2-2.4-24.3-2.4-17.7 0-19.8-.2-27-2.5-9.4-3-9.5-3-11.8-.5zm10.5 3.2c5.1 2.1 7.2 2.3 26.1 2.4 19.7.1 20.9.2 25.5 2.5 6.2 3 8.8 6.9 10.9 16.5 1.1 5 4.8 14.1 11.4 27.7 5.4 11.1 11.2 23.8 13.1 28.3 3.2 7.9 3.2 8.1 1.5 10.8-2.2 3.4-3.5 3-5.9-2-1-2.1-7.5-13.8-14.5-25.9-8.5-14.7-13.7-24.8-15.6-30.5-3.5-10.5-6.8-14.2-15-16.5-5.1-1.5-6.8-1.6-15.4-.4-5.3.7-14.1 1.3-19.6 1.3l-10 .1-1.4-5.8c-1-4.4-1.1-6.4-.3-8.3 1.4-3 2.3-3 9.2-.2zm151.5 9.3c-2.3.8-8.3 1-7.9.3.3-.4 2.4-.8 4.7-.7 2.3 0 3.8.2 3.2.4zm53.8 3.2c1.9 1.1-.1 4.9-11.2 21.3-11.6 17.1-39.4 62.6-44.3 72.5-1.4 2.7-3.7 8.3-5.2 12.2-4.3 11.2-5 9.7-1-1.9 4.1-11.6 29-61.8 41.9-84.3 4.8-8.3 8.9-16.5 9.2-18.3l.6-3.4 4.6.7c2.5.4 4.9.9 5.4 1.2z"/>
</svg>